<svg width="22" height="22" viewBox="0 0 22 22" fill="none" xmlns="http://www.w3.org/2000/svg">
<path fill-rule="evenodd" clip-rule="evenodd" d="M1.99033 3.87254C2.30665 3.34878 4.0495 1.44376 5.29322 1.50127C5.665 1.53208 5.99364 1.75699 6.26067 2.01784C6.87379 2.61656 8.62897 4.88101 8.72859 5.35753C8.97096 6.52621 7.57833 7.1999 8.00454 8.37783C9.09112 11.0366 10.9634 12.9088 13.6233 13.9943C14.8003 14.4205 15.474 13.0279 16.6428 13.2713C17.1183 13.3709 19.3839 15.126 19.9826 15.7391C20.2425 16.0051 20.4684 16.3347 20.4992 16.7065C20.5454 18.0159 18.5222 19.7833 18.1278 20.0092C17.1974 20.6747 15.9834 20.6634 14.5035 19.9753C10.3739 18.2572 3.77426 11.7822 2.02422 7.49669C1.35461 6.02505 1.30839 4.80297 1.99033 3.87254Z" stroke="#200E32" stroke-width="1.5" stroke-linecap="round" stroke-linejoin="round"/>
</svg>
